<?xml version="1.0" standalone="no"?>
<!DOCTYPE svg PUBLIC "-//W3C//DTD SVG 1.1//EN" "http://www.w3.org/Graphics/SVG/1.1/DTD/svg11.dtd">
<svg xmlns="http://www.w3.org/2000/svg">
<metadata>Generated by Fontastic.me</metadata>
<defs>
<font id="ratex-last" horiz-adv-x="512">
<font-face font-family="ratex-last" units-per-em="512" ascent="480" descent="-32"/>
<missing-glyph horiz-adv-x="512" />

<glyph glyph-name="about" unicode="&#97;" d="M425 397l-95 0 0 33c-2 18-15 31-33 31l-143 0 0 15c0 18-16 31-31 31l-31 0c-20 2-33-13-33-31l0-445c0-18 15-31 31-31l30 0c18 0 31 15 31 31l0 143 143 0 0-15c0-18 16-31 31-31l95 0c18 0 31 15 31 31l0 207c5 18-8 31-26 31z m-302-348c0-11-5-16-15-16-11 0-16 5-16 16l0 412c0 10 5 15 16 15 10 0 15-5 15-15z m174 174c0-11-5-16-15-16l-128 0 0 223 128 0c10 0 15-5 15-15z m128-49c0-10-5-15-15-15l-80 0 0 207 80 0c10 0 15-5 15-15z"/>
<glyph glyph-name="add-widget" unicode="&#98;" d="M259 504c-139 0-251-112-251-251 0-138 112-250 251-250 138 0 250 112 250 250 0 139-112 251-250 251z m0-468c-121 0-221 100-221 220 0 120 100 220 221 220 120 0 220-100 220-220-3-123-100-220-220-220z m92 235l-80 0 0 77c0 10-5 16-15 16-10 0-15-6-15-16l0-79-80 0c-10 0-15-5-15-16 0-10 5-15 15-15l80 0 0-79c0-11 5-16 15-16 10 0 15 5 15 16l0 79 80 0c10 0 15 5 15 15 3 8-5 18-15 18z"/>
<glyph glyph-name="arrow-2" unicode="&#99;" d="M31 228l398 0-138-137c-9-9-9-27 0-37 9-9 28-9 37 0l180 181c0 0 3 3 3 3 0 0 0 0 0 3 0 0 0 0 0 3 0 0 0 3 0 3 0 0 0 0 0 3 0 3 0 3 0 6 0 3 0 3 0 6 0 0 0 0 0 3 0 0 0 3 0 3 0 0 0 3 0 3 0 0 0 0 0 3 0 0-3 3-3 3l-180 181c-9 9-28 9-37 0-9-10-9-28 0-37l138-138-398 0c-15-3-27-15-27-27 0-12 12-28 27-28z"/>
<glyph glyph-name="arrow-exhange" unicode="&#100;" d="M389 276l-226 226c-10 10-25 10-35 0-10-10-10-25 0-35l208-208-208-208c-10-11-10-26 0-36 10-10 25-10 35 0l226 226c10 10 10 25 0 35z"/>
<glyph glyph-name="arrow-popular" unicode="&#101;" d="M158 141l118 118-118 118 36 34 154-153-154-154z"/>
<glyph glyph-name="arrowupdown" unicode="&#102;" d="M330 225l24-24-97-96-24 24z m-143-1l97-96-24-24-97 96z m55 187l34 0 0-284-34 0z"/>
<glyph glyph-name="arrowupdown-1" unicode="&#103;" d="M197 102l-24 25 96 96 24-24z m1 0l-97 97 24 24 97-97z m-18 309l34 0 0-284-34 0z m94-122l-24 24 96 97 24-25z m145-1l-97 97 25 24 96-97z m-90 97l34 0 0-284-34 0z"/>
<glyph glyph-name="burger-menu" unicode="&#104;" d="M109 377l310 0c11 0 17 6 17 17 0 11-6 17-17 17l-310 0c-10 0-17-6-17-17 0-9 7-17 17-17z m310-104l-310 0c-11 0-17-6-17-17 0-11 6-17 17-17l310 0c11 0 17 6 17 17 0 11-6 17-17 17z m0-138l-310 0c-11 0-17-6-17-17 0-11 7-17 17-17l310 0c11 0 17 6 17 17 0 11-6 17-17 17z"/>
<glyph glyph-name="courses" unicode="&#105;" d="M177 324l-19 0c-11 0-18-9-18-18l0-185c0-11 9-19 18-19l19 0c11 0 18 10 18 19l0 183c2 11-7 20-18 20z m0-194c0-6-3-9-9-9-7 0-10 3-10 9l0 165c0 6 3 9 10 9 6 0 9-3 9-9z m98 281l-19 0c-11 0-19-9-19-18l0-272c0-11 10-19 19-19l19 0c10 0 18 10 18 19l0 272c0 9-8 18-18 18z m0-281c0-6-3-9-10-9-6 0-9 3-9 9l0 252c0 6 3 9 9 9 7 0 10-3 10-9z m96 126l-19 0c-11 0-18-9-18-19l0-116c0-11 9-19 18-19l19 0c11 0 18 10 18 19l0 116c0 11-7 19-18 19z m0-126c0-6-3-9-9-9-7 0-10 3-10 9l0 97c0 6 3 9 10 9 6 0 9-3 9-9z"/>
<glyph glyph-name="dashboard" unicode="&#106;" d="M219 293l-219 0 0 219 219 0z m-190 29l158 0 0 161-158 0z m483-29l-219 0 0 219 219 0z m-190 29l157 0 0 161-157 0z m190-322l-219 0 0 219 219 0z m-190 29l157 0 0 161-157 0z m-103-29l-219 0 0 219 219 0z m-190 29l158 0 0 161-158 0z"/>
<glyph glyph-name="diagram" unicode="&#107;" d="M410 240l-45 0-42 156c0 10-8 15-16 15-8 0-15-8-18-15l-61-211-53 147c-3 8-11 11-18 11-8 0-16-8-19-16l-23-87-45 0c-11 0-19-7-19-18 0-11 8-19 19-19l60 0c8 0 16 8 19 16l11 42 53-148c4-7 12-12 20-12 7 0 15 8 18 15l58 204 26-103c3-11 11-15 19-15l57 0c11 0 19 7 19 18 0 11-8 20-20 20z"/>
<glyph glyph-name="dyrectory" unicode="&#108;" d="M379 411c0 0-56-15-107-29-7 0-13 0-19 0-48 12-106 29-106 29-21 0-38-17-38-39l0-203c0-22 18-32 38-39 0 0 53-14 107-29l19 0c54 14 107 29 107 29 20 5 39 17 39 39l0 203c-2 22-19 39-40 39z m-126-290c-53 14-107 29-107 29-11 4-19 10-19 19l0 203c0 11 10 19 19 19l107-29z m146 48c0-11-10-17-19-19 0 0-53-13-107-29l0 242 107 30c11 0 19-10 19-19z"/>
<glyph glyph-name="exchange-icon" unicode="&#109;" d="M431 284l-32 0c-11 71-73 127-148 127-57 0-108-32-132-81l22-7c22 39 64 65 112 65 62 0 113-45 124-104l-39 0c-3-3-6-6-1-11l42-43c3-3 9-3 12 0l43 43c2 3 0 8-3 11z m-181-149c-58 0-107 39-123 92l37 0c4 3 7 7 2 10l-42 45c-3 3-9 3-12 0l-44-43c-4-6-1-8 2-11l34 0c15-65 74-115 146-115 54 0 101 30 127 72l-20 7c-23-34-62-57-107-57z"/>
<glyph glyph-name="exchange-menu" unicode="&#110;" d="M330 301l-133 0c-6 0-9-3-9-9 0-7 3-10 9-10l133 0c7 0 10 3 10 10 1 3-3 9-10 9z m-18-59l-96 0c-7 0-10-3-10-9 0-6 3-10 10-10l96 0c6 0 9 4 9 10 0 4-3 9-9 9z m-48 163c-84 0-154-61-154-133 0-42 22-81 58-104l0-69 66 42c10-1 19-3 30-3 84 0 153 61 153 134 0 72-68 133-153 133z m0-248c-11 0-22 1-33 3l-45-27 2 44c-34 22-58 56-58 95 0 63 61 114 134 114 73 0 133-51 133-114 2-64-59-115-133-115z"/>
<glyph glyph-name="expand" unicode="&#111;" d="M197 237l-104-102 0 51c0 5-5 9-9 9-5 0-10-4-10-9l0-74c0-2 0-3 2-5 2-3 3-5 5-5 1-1 3-1 4-1l75 0c4 0 9 5 9 9 0 5-5 9-9 9l-51 0 102 103c3 5 3 11 0 14-3 6-9 6-14 1z m188 169c-2 4-3 5-5 5-1 0-1 0-3 0l-74 0c-5 0-10-5-10-9 0-5 5-9 10-9l51 0-104-104c-3-5-3-11 0-14 1-2 4-3 6-3 2 0 5 1 6 3l104 102 0-51c0-5 5-9 9-9 5 0 10 4 10 9l0 76c0 1 0 3 0 4z"/>
<glyph glyph-name="facebook" unicode="&#112;" d="M388 329l-95 0 0 44c0 0-4 44 25 44 33 0 62 0 62 0l0 95-106 0c0 0-87 0-87-88 0-18 0-55 0-95l-63 0 0-77 59 0c0-120 0-252 0-252l110 0 0 252 69 0z"/>
<glyph glyph-name="github" unicode="&#113;" d="M313 102l-80 0c0 0 0 25 0 42-56-11-70 31-70 31-14 20-23 28-23 28-21 11 0 11 0 11 20 0 31-20 31-20 17-28 48-25 62-17 0 11 3 25 11 31-45 3-84 28-84 81 0 52 11 59 20 69-3 4-11 25 0 53 0 0 20 0 42-31 11 6 42 6 53 6 10 0 42 0 52-11 17 31 35 31 35 31 10-27 3-44 0-52 10-11 20-20 20-70 0-50-34-76-81-84 6-3 11-20 11-31l0-67z"/>
<glyph glyph-name="help" unicode="&#114;" d="M351 408l-211 0c-22 0-39-17-39-39l0-231c0-20 17-37 39-37l211 0c21 0 38 17 38 39l0 229c0 22-17 39-38 39z m18-268c0-11-9-19-18-19l-211 0c-11 0-19 9-19 19l0 192 250 0 0-192z m0 211l-250 0 0 18c0 11 10 20 21 20l211 0c11 0 18-9 18-18z m-46-115c17 0 29 12 29 29 0 17-12 30-29 30-17 0-30-13-30-30 0-17 13-29 30-29z m-11 37l18 0 0-19-18 0z m11-115c17 0 29 13 29 30 0 17-12 29-29 29-17 0-30-12-30-29 0-17 13-30 30-30z m-11 39l18 0 0-19-18 0z m-67 39c17 0 30 12 30 29 0 17-13 30-30 30-17 0-29-13-29-30 0-17 12-29 29-29z m-9 37l18 0 0-19-18 0z m-68-115c17 0 29 13 29 30 0 17-12 29-29 29-18 0-28-14-28-29 0-16 12-30 28-30z m-10 39l19 0 0-19-19 0z m87-39c17 0 30 13 30 30 0 17-13 29-30 29-17 0-29-12-29-29 0-17 12-30 29-30z m-9 39l18 0 0-19-18 0z m-68 39c17 0 29 12 29 29 0 17-12 30-29 30-18 0-28-14-28-31 0-17 12-28 28-28z m-10 37l19 0 0-19-19 0z"/>
<glyph glyph-name="info" unicode="&#115;" d="M245 101c-85 0-155 70-155 155 0 85 70 155 155 155 85 0 155-70 155-155 0-85-68-155-155-155z m0 298c-79 0-143-64-143-143 0-79 64-143 143-143 79 0 143 64 143 143 0 79-64 143-143 143z m-15-84c-3 0-5 2-5 3l0 25c0 1 2 3 5 3l31 0c3 0 4-2 4-3l0-25c0-1-1-3-4-3z m1-143c-3 0-4 0-4 3l0 101c0 2 1 3 4 3l30 0c3 0 4 0 4-3l0-102c0-2-1-3-4-3z"/>
<glyph glyph-name="like-dislike" unicode="&#116;" d="M450 234c22 15 44 70-22 84-48 11-77-22-99 26-18 44 40 124-25 161-26 14-48 7-48-33 7-77-40-88-73-157-33-19-62-30-95-52l-48 0 0-223 44 0 33-11c55-22 117-29 165-29 25 0 80 4 98 18 19 15 26 41 30 51 36 15 43 44 33 74 14 7 25 18 29 33 0 29-19 47-22 58z"/>
<glyph glyph-name="like-liner" unicode="&#117;" d="M397 200c6 8 9 17 9 27 0 9-4 17-7 21 4 11 6 27-8 41-11 9-28 14-53 12-17-2-31-5-32-5-3 0-7-1-11-1 0 4 0 14 8 37 9 28 9 48-2 64-11 15-28 15-33 15-4 0-9-1-12-6-8-8-6-23-6-31-10-23-33-79-53-95 0 0 0 0-2-1-6-6-9-13-12-19-3 2-8 3-12 3l-39 0c-16 0-26-12-26-26l0-106c0-15 12-26 26-26l40 0c6 0 11 2 16 5l15-2c3 0 44-6 87-5 8 0 16-1 22-1 11 0 22 1 29 3 21 5 34 12 41 25 4 9 4 18 4 25 13 12 16 24 14 34 0 4-1 9-3 12z m-265-79c-5 0-9 5-9 9l0 106c0 4 4 9 9 9l40 0c5 0 10-5 10-9l0-106c0-4-5-9-10-9z m250 87c-3-3-3-8-2-11 0 0 3-5 3-11 0-8-3-15-12-22-3-3-5-6-3-9 0 0 3-9-2-17-4-8-14-14-28-17-12-3-28-3-46-2 0 0 0 0-2 0-42-1-84 5-84 5l-6 2c0 1 0 3 0 6l0 105c0 3 0 7-1 8 1 5 4 14 12 22 29 23 57 101 59 104 0 1 0 3 0 4-2 8 0 16 2 19 3 0 12-1 18-9 6-10 6-25-1-47-11-32-13-49-4-57 5-3 10-5 14-3 5 1 8 1 11 1 0 0 0 0 2 0 20 5 56 8 68-4 11-10 3-22 2-24-3-3-2-7 1-11 0 0 6-6 8-15-2-6-5-11-9-17z"/>
<glyph glyph-name="location-pin" unicode="&#118;" d="M264 411c-56 0-103-46-103-102 0-24 14-61 45-114 22-37 42-69 44-71l15-23 16 23c1 2 22 33 43 71 30 55 45 92 45 114-3 56-49 102-105 102z m0-155c-30 0-53 23-53 53 0 29 23 53 53 53 29 0 53-24 53-53 0-30-24-53-53-53z"/>
<glyph glyph-name="partners" unicode="&#119;" d="M365 371c0 23-19 42-42 42l-124 0c-24 0-42-19-42-42-70 0-62 0-62-42 0-34 28-62 62-62 1 0 4 0 7 1 14-40 47-77 87-83l0-64-31 0c-6 0-11-5-11-11 0-6 5-11 11-11l84 0c6 0 11 5 11 11 0 6-5 11-11 11l-31 0 0 64c39 4 71 42 87 83 2 0 5-1 8-1 34 0 62 28 62 62-3 42 4 42-65 42z m-208-84c-24 0-42 19-42 42 0 23 0 20 42 20z m187 22c0-45-37-104-83-104-47 0-84 57-84 104l0 62c0 11 11 20 20 20l124 0c11 0 20-11 20-20l0-62z m21-22l0 62c41 0 41 2 41-20 0-22-18-42-41-42z"/>
<glyph glyph-name="right-up" unicode="&#120;" d="M411 182l-39 0 0 190-190 0 0 39 229 0z m-216-17l-27 28 208 208 28-27z m-64-63l-28 27 209 208 27-27z"/>
<glyph glyph-name="search" unicode="&#121;" d="M434 119l-79 78c22 23 34 53 34 85 0 70-57 128-128 128-72 1-129-56-129-126 0-70 57-127 129-127 31 0 59 11 80 29l79-79c4-3 11-3 14 0 5 3 5 9 0 12z m-173 56c-61 0-109 48-109 107 0 59 48 107 109 107 60 0 108-48 108-107 0-59-48-107-108-107z"/>
<glyph glyph-name="services" unicode="&#122;" d="M102 234l142-63c12-7 17-7 31 0l141 63c8 3 9 19 9 27-9-5-22-11-22-11l-144-65-144 66c0 0-13 5-22 11 0-9 3-23 9-28z m157-116l-144 67c0 0-13 4-22 10 0-7 2-23 9-26l142-63c12-7 17-7 31 0l141 63c8 3 9 19 9 26-9-4-22-10-22-10z m-157 183l142-64c12-6 17-6 31 0l141 64c11 5 11 25 0 31l-141 74c-11 7-19 7-31 0l-142-74c-9-6-10-25 0-31z m157 93l144-77-144-61-144 61z"/>
<glyph glyph-name="settings" unicode="&#65;" d="M486 311l-36 7c-4 11-7 22-15 37l22 29c7 11 7 29-4 40l-32 33c-8 7-15 11-22 11-8 0-15-4-19-7l-29-26c-11 8-22 11-36 15l-8 36c0 15-14 26-29 26l-44 0c-18 0-29-11-33-26l-7-36c-11-4-22-11-33-15l-29 22c-8 4-11 4-19 4-7 0-18-4-22-11l-32-29c-11-11-11-30-4-41l22-29c-8-11-11-22-15-36l-36-8c-15 0-26-14-26-29l0-44c0-15 11-29 26-33l36-7c4-11 11-22 15-33l-22-29c-7-11-7-30 4-41l32-32c8-8 15-11 22-11 8 0 15 3 19 7l29 22c11-8 22-11 33-15l7-36c4-15 18-26 33-26l44 0c15 0 29 11 33 26l7 36c11 4 22 7 37 15l29-22c4-4 11-7 18-7 8 0 15 3 22 11l33 32c11 11 11 30 4 41l-22 29c7 11 11 22 14 36l37 8c11 0 22 14 22 29l0 44c0 15-11 29-26 33z m-3-77c0-4 0-4 0 0l-48-11c-7 0-11-4-11-11-3-15-11-29-18-44-4-3-4-11 0-14l26-37c0 0 0-4 0-4l-30-33c0 0 0 0-3 0l-37 26c-4 4-11 4-15 0-14-7-29-15-43-18-8 0-11-8-11-11l-8-44c0 0 0-4-3-4l-48 0c0 0-4 0-4 4l-7 44c0 7-4 11-11 11-15 3-29 11-44 18-3 0-3 4-7 4-4 0-7 0-7-4l-37-26c0 0 0 0-4 0l-33 30c0 0 0 3 0 3l26 37c4 7 4 11 0 18-7 11-15 26-18 44 0 4-8 11-11 11l-44 7c0 0-4 0-4 4l0 44c0 0 0 4 4 4l44 7c7 0 11 4 11 11 3 15 11 29 18 44 4 3 4 11 0 14l-26 37c0 0 0 4 0 4l30 33c0 0 0 0 3 0l37-26c7-4 11-4 18 0 15 7 29 15 44 18 4 0 11 8 11 11l7 44c0 0 0 4 4 4l44 0c0 0 4 0 4-4l7-44c0-7 4-11 11-11 15-3 29-11 44-18 7-4 11-4 18 0l37 26c0 0 0 0 3 0l30-30c0 0 0-3 0-3l-26-37c-4-4-4-11 0-15 7-14 15-29 18-43 0-8 8-11 11-11l44-8c0 0 4 0 4-3z m-227 132c-62 0-110-48-110-110 0-62 51-110 110-110 59 0 110 51 110 110 0 59-48 110-110 110z m0-190c-44 0-80 36-80 80 0 44 36 80 80 80 44 0 80-36 80-80 0-44-36-80-80-80z"/>
<glyph glyph-name="switch" unicode="&#66;" d="M512 99l-512 0 0 311 512 0z m-496 16l480 0 0 281-480 0z m197 248l248 0 0-217-248 0z"/>
<glyph glyph-name="twitter" unicode="&#67;" d="M444 371c-14-6-28-9-45-13 15 10 28 25 34 44-16-9-31-16-50-19-14 16-34 25-57 25-44 0-78-34-78-78 0-6 0-12 2-17-62 4-118 33-157 81-8-12-11-25-11-40 0-27 14-51 34-65-12 0-24 3-35 9 0-37 26-68 62-76-6-2-13-3-20-3-5 0-10 0-14 1 9-31 38-52 71-54-26-20-61-33-96-33-6 0-13 0-19 0 34-20 75-32 120-32 142 0 220 118 220 220 0 3 0 6 0 9 15 13 29 25 39 41z"/>
<glyph glyph-name="update" unicode="&#68;" d="M102 295l97 0c6 0 9 3 9 9 0 6-3 9-9 9l-73 0c21 45 68 76 121 76 68 0 124-49 132-114l18 0c-9 76-74 135-152 135-57 0-108-31-135-80l0 70c0 6-3 10-9 10-6 0-8-5-8-10l0-96c0-9 9-9 9-9z m289-78l-96 0c-6 0-10-3-10-9 0-6 4-9 10-9l73 0c-22-45-69-76-121-76-69 0-124 49-132 114l-19 0c10-76 75-135 152-135 58 0 109 31 135 80l0-70c0-6 3-10 10-10 6 0 9 4 9 10l0 96c-2 9-11 9-11 9z"/>
<glyph glyph-name="useful-info" unicode="&#69;" d="M334 236l-135 0c-7 0-10-3-10-9 0-7 3-10 10-10l135 0c6 0 9 3 9 10 0 6-3 9-9 9z m0 57l-135 0c-7 0-10-3-10-9 0-6 3-9 10-9l135 0c6 0 9 3 9 9 0 5-3 9-9 9z m29 115l-192 0c-22 0-39-17-39-39l0-268 18 0 39 29 39-29 39 29 39-29 38 29 39-29 19 0 0 268c0 22-19 39-39 39z m19-289l-39 30-39-31-39 31-38-31-39 31-39-30 0 250c0 11 9 19 19 19l192 0c11 0 19-9 19-19l0-250z m-48 232l-135 0c-7 0-10-3-10-10 0-6 3-9 10-9l135 0c6 0 9 3 9 9 0 7-3 10-9 10z"/>
<glyph glyph-name="useful-information" unicode="&#70;" d="M303 293l-135 0c-7 0-10-3-10-9 0-6 3-9 10-9l135 0c6 0 9 3 9 9 0 5-5 9-9 9z m0-57l-135 0c-7 0-10-3-10-9 0-7 3-10 10-10l135 0c6 0 9 3 9 10 0 4-5 9-9 9z m0 115l-135 0c-7 0-10-3-10-10 0-6 3-9 10-9l135 0c6 0 9 3 9 9 0 5-5 10-9 10z m27 57l-190 0c-22 0-39-17-39-39l0-268 18 0 39 29 39-29 39 29 39-29 38 29 39-29 19 0 0 268c-2 22-19 39-41 39z m19-289l-39 30-38-31-39 31-39-31-39 31-39-30 0 250c3 11 13 19 24 19l192 0c11 0 19-9 19-19l0-250z"/>
<glyph glyph-name="user" unicode="&#71;" d="M413 161l-30 0c-34 0-62 28-62 62l0 20c13 16 23 36 31 57 0 2 5 5 5 7 13 13 15 31 5 46 0 3-2 5-2 8 0 18 0 36 0 54 0 23-8 43-23 61-13 13-31 21-46 26-23 5-47 5-67-3-18-5-36-15-49-33-10-15-15-31-15-49 0-18 0-36 0-56 0-3-3-5-5-10-8-16-5-36 8-46 2-3 5-8 5-11 5-18 15-35 28-51l0-20c0-34-28-62-62-62l-30 0c0 0-57-15-92-92l0-31c0-18 12-30 30-30l435 0c18 0 31 12 31 30l0 31c-38 77-95 92-95 92z"/>
<glyph glyph-name="user-01" unicode="&#72;" d="M424 199l-19 0c-20 0-37 17-37 37l0 12c7 10 14 22 18 34 0 2 3 3 3 5 8 8 10 19 4 28 0 2-2 3-2 5 0 10 0 21 0 32 0 14-5 27-14 37-8 8-19 13-28 16-14 3-28 3-40-2-11-3-22-9-30-20-6-9-9-18-9-29 0-11 0-22 0-34 0-2-2-3-3-7-5-9-3-21 5-28 1-1 3-4 3-6 3-11 9-21 17-31l0-12c0-20-17-37-38-37l-18 0c0 0-34-10-56-56l0-19c0-11 8-18 19-18l263 0c11 0 19 7 19 18l0 19c-25 46-57 56-57 56z"/>
<glyph glyph-name="user-top" unicode="&#73;" d="M512 256c0 143-113 256-256 256-143 0-256-113-256-256 0-73 33-143 84-190l7-7c4-4 8-8 15-11 0 0 4-4 4-4 3-4 11-7 14-11 0 0 4 0 4-4 7-3 11-7 18-7 19-7 41-15 62-18 11 0 19-4 26-4 0 0 0 0 4 0 7 0 14 0 22 0 7 0 14 0 22 0 0 0 0 0 3 0 8 0 15 0 22 4 22 3 40 11 62 18 0 0 0 0 4 0 7 4 11 7 18 7 0 0 4 0 4 4 4 4 11 7 15 11 0 0 3 4 3 4 4 3 8 7 11 11 0 0 0 0 4 3l7 7c44 44 77 114 77 187z m-494 0c0 132 106 238 238 238 132 0 238-106 238-238 0-69-30-135-81-179-3 3-7 3-7 3l-81 41c-7 3-10 11-10 18l0 29c0 4 3 4 7 8 7 14 18 32 22 47 14 7 22 18 22 33l0 33c0 7-4 15-8 22l0 44c0 3 4 33-18 55-18 18-47 29-84 29-37 0-66-11-84-29-18-26-15-52-15-55l0-44c-7-7-11-15-11-22l0-33c0-11 4-18 11-26 11-33 26-54 33-62l0-25c0-8-3-15-11-19l-73-40c-4 0-4-4-7-4-51 44-81 107-81 176z"/>
<glyph glyph-name="vkontakte" unicode="&#74;" d="M259 101c16 0 16 23 16 32 0 16 15 33 32 33 16 0 44-28 65-48 16-16 16-16 33-16 15 0 48 0 48 0 0 0 33 2 33 33 0 9-11 28-48 65-33 33-49 16 0 81 29 40 51 76 48 85-3 9-86 27-98 11-33-48-39-60-48-81-16-32-17-48-33-48-15 0-15 31-15 48 0 53 7 90-16 98 0 0-32 0-48 0-26 0-48-15-48-15 0 0-20-16-16-16 5 0 33 6 33-15 0-16 0-33 0-33 0 0 0-65-15-65-16 0-52 62-84 110-13 20-16 15-33 15-17 0-32 0-48 0-15 0-17-10-15-15 32-81 54-132 116-196 57-58 95-62 126-63 7 0 0 0 15 0z"/>
<glyph glyph-name="atom" unicode="&#75;" d="M256 320c-35 0-64-29-64-64 0-35 29-64 64-64 35 0 64 29 64 64 0 35-29 64-64 64z m197-8c-7 2-13 6-19 11-8-16-19-32-30-49-18 23-38 46-61 69-23 22-46 43-69 61 55 39 108 62 145 62 16 0 27-4 35-12 9-8 12-22 12-38 1 0 2 0 3 0 6 0 12-1 18-3 1 24-5 43-18 56-12 12-28 18-50 18-43 0-102-26-163-70-61 44-120 70-163 70-5 0-9 0-13-1 6-5 10-12 13-20 37 0 90-23 145-62-23-18-46-39-69-61-22-23-43-46-61-69-18 26-33 51-44 76-7 16-12 32-15 45-2 0-4 0-6 0-6 0-11 1-16 2 3-17 9-35 18-56 12-27 29-56 50-85-21-29-38-58-50-85-26-58-27-104-2-128 12-12 28-18 50-18 64 0 162 56 250 144 22 23 43 46 61 69 59-83 76-154 50-180-8-8-19-12-35-12-20 0-44 7-71 19-3-7-7-13-12-18 31-14 59-22 83-22 22 0 38 6 50 18 37 37 14 122-52 213 14 19 26 38 36 56z m-360-266c-16 0-27 4-35 12-18 17-15 55 6 104 11 25 26 50 44 76 18-23 39-47 61-69 23-23 46-43 69-61-55-39-108-62-145-62z m235 138c-23-23-48-44-72-63-24 19-48 40-72 63-23 24-44 48-63 72 19 24 40 48 63 72 24 23 48 44 72 63 24-19 48-40 72-63 24-24 45-48 63-72-19-24-40-48-63-72z m141 200c-11 0-21-10-21-21 0-12 10-22 21-22 12 0 22 10 22 22 0 11-10 21-22 21z m-170-277c-12 0-22-10-22-22 0-11 10-21 22-21 11 0 21 10 21 21 0 12-10 22-21 22z m-256 320c11 0 21 9 21 21 0 12-10 21-21 21-12 0-22-9-22-21 0-12 10-21 22-21z"/>
<glyph glyph-name="logo-gray" unicode="&#76;" d="M20 257l-13 0 0 30 11 0c7 0 12-1 15-4 3-2 4-6 4-11 0-5-1-8-4-11-3-2-8-4-13-4z m21 3c3 3 4 8 4 13 0 7-2 12-7 15-4 4-11 6-20 6l-18 0 0-75 7 0 0 32 16 0 18-32 9 0-20 34c5 1 8 4 11 7z m294-5l46 0 0 6-46 0z m-110 32l23 0 0-68 8 0 0 68 23 0 0 7-54 0z m261-29l23 36-8 0-19-30-19 30-8 0 23-36-25-39 8 0 21 33 20-33 9 0z m-151 29l71 0 0 7-71 0z m-197 7l-30-75 8 0 0 1c1 2 19 49 24 62 5-13 22-60 23-62l0-1 8 0-29 75z m197-75l27 0 0 7-27 0z"/>
<glyph glyph-name="star-empty" unicode="&#77;" d="M1132 473l-4-2 1 5-4 3 5 1 2 4 2-4 5-1-3-3 0-5z"/>
<glyph glyph-name="star-filled" unicode="&#78;" d="M1112 473l-4-2 1 5-4 3 5 1 2 4 2-4 5-1-3-3 0-5z"/>
<glyph glyph-name="icon-beta" unicode="&#79;" d="M220 302l22 0c65 0 99-29 99-81 0-44-29-75-77-75-58 0-93 39-93 103l0 125c0 62 26 92 78 92 40 0 67-23 67-60 0-42-25-65-73-65l-23 0z m-95 76l0-365 46 0 0 141 1 0c17-31 54-49 98-49 70 0 118 49 118 118 0 53-29 89-85 102l0 1c37 14 59 44 59 83 0 61-44 98-115 98-77 0-122-46-122-129z"/>
<glyph glyph-name="icon-alpha" unicode="&#80;" d="M222 103c-74 0-121 63-121 164 0 99 49 164 123 164 77 0 131-67 131-164 0-98-54-164-133-164z m-6-65c57 0 112 32 137 78l2 0c8-51 44-74 99-74 16 0 25 1 39 4l-4 62c-7-2-16-3-23-3-28 0-39 16-39 56l0 331-69 0 0-73-1 0c-28 48-81 77-140 77-113 0-190-93-190-229 0-136 76-229 189-229z"/>
<glyph glyph-name="arrow-big-left" unicode="&#81;" d="M32 262l133 133-8 8-144-143-4-4 4-4 144-143 8 8-133 133 480 0 0 12z"/>
</font>
</defs>
</svg>
